# xmcd CD database file
#
# Track frame offsets:
#        150
#        17949
#        36525
#        56206
#        72681
#        91374
#        104640
#        123572
#        141261
#        162649
#        181536
#
# Disc length: 2748 seconds
#
# Revision: 0
# Processed by: cddbd v1.5.2PL0 Copyright (c) Steve Scherf et al.
# Submitted via: CUERipper 2.1.5
#
DISCID=ac0aba0b
DTITLE=Cozette Morgan - Stay With Me
DYEAR=1995
DGENRE=Blues
TTITLE0=Pain
TTITLE1=I  forgive You
TTITLE2=Killer Blues
TTITLE3=Love Thang
TTITLE4=Stay (Just)
TTITLE5=Think
TTITLE6=All Out Of Love
TTITLE7=To Love You
TTITLE8=Break Up To Make Up
TTITLE9=Don't Turn Yur Love Around
TTITLE10=Killer Blues (jam session)
EXTD=
EXTT0=
EXTT1=
EXTT2=
EXTT3=
EXTT4=
EXTT5=
EXTT6=
EXTT7=
EXTT8=
EXTT9=
EXTT10=
PLAYORDER=
